<?xml version="1.0" encoding="utf-8"?>
<!-- Generator: Adobe Illustrator 23.0.1, SVG Export Plug-In . SVG Version: 6.00 Build 0)  -->
<svg version="1.1" id="Layer_1" xmlns="http://www.w3.org/2000/svg" xmlns:xlink="http://www.w3.org/1999/xlink" x="0px" y="0px"
	 viewBox="0 0 49.6 53.4" style="enable-background:new 0 0 49.6 53.4;" xml:space="preserve">
<g id="Group_81" transform="translate(-0.1 -0.06)">
	<path id="Path_302" d="M47.1,33.1V28H34.6c0.4-0.9,0.8-1.7,1.2-2.4c0-0.1,0.3-0.1,0.4-0.2c4,0,8,0,12,0c1,0,1.4,0.5,1.4,1.6v24.7
		c0,1.3-0.4,1.7-1.7,1.7H1.8c-1.3,0-1.7-0.4-1.7-1.7V27.2c0-1.3,0.5-1.7,1.7-1.7h11.6c0.3,0,0.7,0.2,0.8,0.5c0.3,0.7,0.6,1.3,0.9,2
		H4.6c3,3.7,5.9,7.4,8.8,11.1c1.7-1.4,3.3-2.7,5-4.2c0.4,0.8,0.8,1.5,1.1,2.3c-1.5,1.3-3,2.6-4.5,3.8c1.8,2.2,3.5,4.4,5.3,6.7
		c0.8,1,1.5,1.9,2.3,2.9c0.2,0.2,0.4,0.3,0.7,0.3c6,0,12,0,18,0c0.2,0,0.3,0,0.6,0c-0.7-0.9-1.4-1.7-2-2.5c-3-3.8-6-7.5-9.1-11.3
		c-0.3-0.3-0.3-0.7-0.1-1c0.4-0.8,0.8-1.6,1.2-2.4c0.1-0.4,0.5-0.6,0.8-0.5c4.6,0,9.1,0,13.7,0C46.7,33.1,46.9,33.1,47.1,33.1z
		 M2.7,50.9h17C14,43.8,8.3,36.7,2.7,29.6V50.9z M47.1,42v-6.4h-14c0,0,0,0.1,0,0.1c1.6,2,3.2,4,4.7,5.9c0.2,0.2,0.4,0.3,0.6,0.3
		c2.4,0,4.8,0,7.1,0L47.1,42z M40.2,44.6l4.9,6.2c0.1,0.1,0.2,0.2,0.3,0.2c0.6,0,1.1,0,1.7,0v-6.3L40.2,44.6z"/>
	<path id="Path_303" d="M12.2,12.9C12.1,5.9,17.8,0.1,24.8,0c3.6,0,7,1.4,9.5,4.1c2.6,2.8,3.8,6.6,3.2,10.4
		c-0.3,1.9-0.9,3.8-1.7,5.5c-3.2,6.6-6.4,13.2-9.6,19.8c-0.4,0.9-1.1,1.2-1.7,0.9c-0.4-0.2-0.6-0.5-0.8-0.9
		c-1.6-3.3-3.2-6.6-4.8-9.9c-1.7-3.6-3.4-7.2-5.2-10.7C12.8,17.1,12.3,15.1,12.2,12.9z M24.9,36.5c0.1-0.2,0.2-0.4,0.3-0.5
		c2.8-5.8,5.6-11.6,8.4-17.4c0.6-1.3,1.1-2.7,1.4-4.2c0.8-4.6-1.6-9.1-5.9-10.9C25,1.7,20.2,2.7,17.2,6c-3,3.4-3.1,7.4-1.5,11.4
		c1.6,3.8,3.5,7.4,5.2,11C22.3,31.1,23.6,33.8,24.9,36.5z"/>
	<path id="Path_304" d="M31.9,12.8c0,3.9-3.1,7-7,7s-7-3.1-7-7s3.1-7,7-7C28.8,5.8,31.9,8.9,31.9,12.8z M24.9,17.2
		c2.5,0,4.5-1.9,4.5-4.4c0-2.5-1.9-4.5-4.4-4.5s-4.5,1.9-4.5,4.4C20.4,15.2,22.4,17.2,24.9,17.2z"/>
</g>
</svg>
