<?xml version="1.0" encoding="utf-8"?>
<!-- Generator: Adobe Illustrator 23.0.1, SVG Export Plug-In . SVG Version: 6.00 Build 0)  -->
<svg version="1.1" id="Group_79" xmlns="http://www.w3.org/2000/svg" xmlns:xlink="http://www.w3.org/1999/xlink" x="0px" y="0px"
	 viewBox="0 0 39.1 58.2" style="enable-background:new 0 0 39.1 58.2;" xml:space="preserve">
<path id="Path_288" d="M0,29V4.6c-0.1-2.1,1.3-3.9,3.3-4.5C3.8,0,4.2,0,4.7,0h29.7c2.5-0.1,4.6,1.8,4.7,4.2c0,0.2,0,0.3,0,0.5v48.7
	c0.2,2.5-1.7,4.6-4.2,4.7c-0.2,0-0.4,0-0.5,0H4.7C2.3,58.3,0.2,56.5,0,54c0-0.2,0-0.4,0-0.6V29z M1.8,9.5v37.3h35.4V9.5H1.8z
	 M1.8,48.7c0,1.7,0,3.5,0,5.1c0,1.4,1.1,2.5,2.5,2.6c0.1,0,0.2,0,0.3,0h29.9c1.4,0.1,2.7-0.9,2.8-2.4c0-0.1,0-0.3,0-0.4v-4.5
	c0-0.1,0-0.3,0-0.5L1.8,48.7z M1.9,7.6h35.4c0-1.1,0-2.2,0-3.3c0-0.9-0.5-1.7-1.3-2.1c-0.5-0.2-1-0.3-1.6-0.4c-9.9,0-19.8,0-29.6,0
	c-0.2,0-0.3,0-0.5,0c-1.2,0-2.1,0.9-2.3,2C1.8,5.1,1.8,6.3,1.9,7.6z"/>
<path id="Path_292" d="M12,18.2c0.2,0.1,0.3,0.1,0.5,0.2c5,3.1,10.1,6.3,15.1,9.4c0.8,0.5,0.8,1.3,0,1.8c-0.2,0.1-0.4,0.2-0.6,0.3
	c-2.1,0.7-4.3,1.4-6.4,2.1c-0.3,0.1-0.6,0.3-0.8,0.6c-1.6,1.6-3.1,3.3-4.7,4.9c-0.2,0.2-0.4,0.3-0.6,0.5c-0.4,0.3-1,0.3-1.3-0.1
	c-0.1-0.2-0.2-0.4-0.2-0.6c-0.5-4.9-1.1-9.9-1.7-14.8c-0.1-1-0.2-2-0.4-3c-0.1-0.6,0.3-1.1,0.9-1.1C11.9,18.2,11.9,18.2,12,18.2z
	 M18.4,31.2c-0.2-0.2-0.3-0.5-0.4-0.6c-0.7-1.2-1.5-2.4-2.3-3.6c-0.3-0.4-0.3-1,0.1-1.3c0.1-0.1,0.2-0.2,0.4-0.2
	c0.4-0.1,0.9,0.1,1.1,0.5c0.8,1.3,1.6,2.6,2.4,3.8c0.1,0.2,0.3,0.3,0.6,0.3c0,0,0,0,0.1,0c1.5-0.5,3-1,4.5-1.5
	c0.1,0,0.2-0.1,0.4-0.2c-4.1-2.6-8.1-5-12.2-7.6c0.5,4.8,1.1,9.6,1.6,14.4C15.9,33.8,17.1,32.5,18.4,31.2L18.4,31.2z"/>
<path id="Path_293" d="M19.6,55.5c-1.7,0-3.1-1.3-3.1-3s1.3-3.1,3-3.1c1.7,0,3.1,1.3,3.1,3c0,0,0,0,0,0
	C22.7,54.1,21.3,55.5,19.6,55.5z M20.8,52.4c0-0.7-0.6-1.2-1.3-1.2c-0.7,0-1.2,0.6-1.2,1.3c0,0.7,0.6,1.2,1.3,1.2
	C20.3,53.6,20.8,53.1,20.8,52.4L20.8,52.4z"/>
<path id="Path_294" d="M20.8,5.7c-0.8,0-1.6,0-2.4,0c-0.8,0-1.3-0.7-0.9-1.4c0.2-0.3,0.5-0.4,0.8-0.5c1.6,0,3.2,0,4.8,0
	c0.5-0.1,1,0.3,1,0.8c0,0,0,0.1,0,0.1c0,0.5-0.5,0.9-1,0.9c0,0,0,0-0.1,0L20.8,5.7z"/>
<path id="Path_295" d="M16.7,4.7c0,0.5-0.4,0.9-0.9,0.9c-0.5,0-0.9-0.4-0.9-0.9c0-0.5,0.4-0.9,0.9-0.9C16.2,3.8,16.6,4.2,16.7,4.7
	C16.7,4.7,16.7,4.7,16.7,4.7z"/>
</svg>
