<?xml version="1.0" encoding="utf-8"?>
<!-- Generator: Adobe Illustrator 23.0.1, SVG Export Plug-In . SVG Version: 6.00 Build 0)  -->
<svg version="1.1" id="Layer_1" xmlns="http://www.w3.org/2000/svg" xmlns:xlink="http://www.w3.org/1999/xlink" x="0px" y="0px"
	 viewBox="0 0 56.5 45.4" style="enable-background:new 0 0 56.5 45.4;" xml:space="preserve">
<g id="Group_80" transform="translate(0.116)">
	<path id="Path_296" d="M12.6,41.4c2.4-2.3,4.6-4.4,6.8-6.5c0.6-0.5,1.1-1.1,1.7-1.6c0.3-0.2,0.6-0.4,1-0.4c3.5,0,6.9,0,10.4,0
		c0.7-0.1,1.3,0.4,1.4,1.1c0,0,0,0.1,0,0.1c0,0.7-0.5,1.2-1.2,1.2c-0.1,0-0.1,0-0.2,0H23c-0.3,0-0.7,0.1-0.9,0.4
		c-3.2,3.1-6.4,6.2-9.7,9.3c-0.4,0.4-0.8,0.7-1.4,0.5c-0.6-0.2-0.9-0.8-0.8-1.4c0-2.7,0-5.3,0-8v-0.6c-0.3,0-0.5,0-0.7,0
		c-1.3,0-2.7,0-4-0.2c-3.1-0.6-5.3-3.2-5.5-6.3c-0.1-1.3,0-2.6,0-3.9V7.3C-0.2,4.7,1.1,2.3,3.3,1C4.4,0.3,5.8,0,7.1,0h34.6
		c3.5-0.1,6.5,2.5,7,5.9c0.1,0.3,0.1,0.7,0.1,1v11.2c0,0.8-0.3,1.3-1,1.4c-0.6,0.2-1.3-0.2-1.4-0.8c0-0.1,0-0.3,0-0.4
		c0-1.6,0-3.3,0-4.9V7.1C46.4,5,45,3,42.9,2.5c-0.4-0.1-0.8-0.1-1.2-0.1H7.1C4.8,2.3,2.8,4,2.4,6.2c0,0.2,0,0.5,0,0.7v21.4
		c0,2.4,1.9,4.5,4.4,4.5c1.4,0,2.9,0,4.4,0c1,0,1.5,0.5,1.5,1.5v6.4C12.6,40.9,12.6,41.1,12.6,41.4z"/>
	<path id="Path_297" d="M40.2,37.3c1.1,1.3,2.7,2.2,4.4,2.4c4.3,0.8,8.5-2,9.3-6.3C54,33,54,32.5,54,32c0-0.5-0.1-0.9-0.1-1.4
		c-0.1-0.6,0.3-1.3,1-1.4c0.6-0.1,1.3,0.3,1.4,1c0,0,0,0.1,0,0.1c0.5,2.9-0.3,5.9-2.2,8.1c-1.6,2.1-4,3.4-6.6,3.8
		c-2.9,0.4-5.9-0.4-8.1-2.4c-0.3-0.2-0.6-0.5-0.8-0.8c0,0,0,0-0.1,0c0,0.1-0.1,0.3-0.1,0.4c-0.2,0.6-0.9,1-1.5,0.8
		c-0.5-0.2-0.8-0.6-0.8-1.2c0-1.1,0.1-2.3,0.2-3.5c0.1-0.6,0.6-1,1.2-0.9c1.1,0,2.1,0.1,3.2,0.2c0.7,0,1.2,0.5,1.2,1.1
		c0,0,0,0.1,0,0.1c0,0.7-0.6,1.2-1.3,1.2C40.4,37.2,40.3,37.3,40.2,37.3z"/>
	<path id="Path_298" d="M51.8,23.2c0-0.2,0.1-0.5,0.1-0.7c0.1-0.5,0.6-0.9,1.2-0.8c0.5,0,1,0.4,1.1,0.9c0.2,1,0.3,2.1,0.5,3.2
		c0.1,0.6-0.2,1.3-0.9,1.4c0,0-0.1,0-0.2,0c-1.1,0.2-2.1,0.3-3.2,0.4c-0.7,0.1-1.3-0.4-1.4-1c-0.1-0.6,0.4-1.2,1-1.3
		c0.1,0,0.2-0.1,0.3-0.1c-1.4-0.9-3-1.3-4.6-1.3c-3.7,0.1-6.8,2.8-7.5,6.4c-0.1,0.3-0.1,0.7-0.2,1.1c-0.1,0.6-0.7,1-1.3,0.9
		c0,0,0,0,0,0c-0.6-0.1-1-0.7-1-1.4c0.5-5.7,5.6-10,11.3-9.4c1.5,0.1,2.9,0.6,4.2,1.3C51.4,23,51.5,23.1,51.8,23.2
		C51.7,23.2,51.7,23.2,51.8,23.2z"/>
	<path id="Path_299" d="M19.8,18.4c0,0.9-0.7,1.7-1.6,1.7s-1.7-0.7-1.7-1.6c0,0,0-0.1,0-0.1c0-0.9,0.7-1.6,1.6-1.6c0,0,0,0,0,0
		C19,16.7,19.8,17.4,19.8,18.4z"/>
	<path id="Path_300" d="M24.4,16.7c0.9,0,1.7,0.7,1.7,1.6c0,0.9-0.7,1.6-1.6,1.7c-0.9,0-1.7-0.8-1.7-1.7
		C22.8,17.5,23.5,16.7,24.4,16.7C24.4,16.7,24.4,16.7,24.4,16.7z"/>
	<path id="Path_301" d="M32.3,18.4c0,0.9-0.7,1.6-1.6,1.7c-0.9,0-1.7-0.7-1.7-1.7c0-0.9,0.7-1.6,1.6-1.6c0,0,0,0,0,0
		C31.5,16.7,32.3,17.4,32.3,18.4z"/>
</g>
</svg>
